<svg xmlns="http://www.w3.org/2000/svg" width="2267.72" height="2267.72" viewBox="0 0 2267.72 2267.72"><circle fill="#FFF" stroke="#F3931A" stroke-width="85" stroke-miterlimit="10" cx="1133.86" cy="1106.575" r="983.803"/><path stroke="#000" stroke-miterlimit="10" d="M1079.004 1642.186l-221.245-214.121 221.076-211.924c19.51-18.702 20.164-49.676 1.462-69.186-18.701-19.508-49.674-20.163-69.184-1.462l-223.725 214.466-222.703-215.533c-19.419-18.793-50.397-18.287-69.19 1.133-18.793 19.42-18.287 50.396 1.133 69.189l220.064 212.98-222.266 213.064c-19.508 18.699-20.163 49.674-1.462 69.184 18.701 19.51 49.676 20.164 69.185 1.461l224.915-215.604 223.882 216.672c19.418 18.795 50.396 18.289 69.189-1.133 18.795-19.415 18.287-50.393-1.131-69.186zM1773.462 1642.186l-221.244-214.121 221.075-211.924c19.51-18.702 20.163-49.676 1.462-69.186-18.702-19.508-49.675-20.163-69.185-1.462l-223.725 214.466-222.703-215.533c-19.42-18.793-50.396-18.287-69.19 1.133-18.793 19.42-18.287 50.396 1.134 69.189l220.064 212.98-222.267 213.064c-19.508 18.699-20.163 49.674-1.462 69.184s49.676 20.164 69.185 1.461l224.915-215.604 223.882 216.672c19.419 18.795 50.396 18.289 69.189-1.133 18.796-19.415 18.288-50.393-1.13-69.186zM1079.004 981.938L857.76 767.818l221.075-211.924c19.51-18.702 20.164-49.675 1.462-69.185-18.702-19.508-49.674-20.163-69.184-1.462L787.388 699.712 564.686 484.18c-19.419-18.794-50.397-18.287-69.19 1.132-18.793 19.42-18.287 50.397 1.133 69.19l220.064 212.979-222.266 213.065c-19.508 18.7-20.163 49.674-1.462 69.185 18.701 19.508 49.676 20.163 69.185 1.461l224.915-215.604 223.881 216.672c19.419 18.794 50.397 18.288 69.189-1.133 18.795-19.417 18.287-50.396-1.131-69.189z"/><path fill="#F3931A" d="M1710.36 913.441c46.612-51.275 75.023-119.394 75.023-194.148 0-159.453-129.262-288.714-288.715-288.714-159.452 0-288.714 129.261-288.714 288.714 0 74.761 28.415 142.884 75.035 194.16l213.681 255.153 213.69-255.165zM1498.162 560.17c87.879 0 159.122 71.242 159.122 159.123s-71.243 159.123-159.122 159.123c-87.883 0-159.125-71.242-159.125-159.123s71.242-159.123 159.125-159.123z"/></svg>